<svg id="Layer_1" data-name="Layer 1" xmlns="http://www.w3.org/2000/svg" width="33.16mm" height="18.34mm" viewBox="0 0 94 52"><defs><style>.cls-1{fill:#c53bea;}</style></defs><title>Artboard 1</title><rect x="0.5" y="0.5" width="93" height="51"/><path d="M93,1V51H1V1H93m1-1H0V52H94V0Z"/><path class="cls-1" d="M76,5A11,11,0,0,1,87,16V36A11,11,0,0,1,76,47H17A11,11,0,0,1,6,36V16A11,11,0,0,1,17,5H76m0-1H17A12,12,0,0,0,5,16V36A12,12,0,0,0,17,48H76A12,12,0,0,0,88,36V16A12,12,0,0,0,76,4Z"/><path class="cls-1" d="M13.72,21.2a.36.36,0,0,1-.12-.28V19.11a.34.34,0,0,1,.12-.27.37.37,0,0,1,.26-.1h9.75a.41.41,0,0,1,.28.11.37.37,0,0,1,.12.26v1.81a.37.37,0,0,1-.12.27.35.35,0,0,1-.28.13H14A.35.35,0,0,1,13.72,21.2Zm0,12.12a.35.35,0,0,1-.12-.26v-9.7a.35.35,0,0,1,.12-.28A.37.37,0,0,1,14,23h1.79a.36.36,0,0,1,.27.1.38.38,0,0,1,.11.28v1.51c0,.26.18.4.54.4H22a.39.39,0,0,1,.26.09.31.31,0,0,1,.1.24v1.81a.3.3,0,0,1-.1.24.4.4,0,0,1-.26.1H16.63c-.32,0-.48.14-.48.44v2.29a.41.41,0,0,0,.39.39h7.23a.38.38,0,0,1,.38.38v1.81a.38.38,0,0,1-.11.26.34.34,0,0,1-.27.12H14A.35.35,0,0,1,13.72,33.32Z"/><path class="cls-1" d="M36.12,33.39,36,33.18c-.55-.85-1.44-2.24-2.68-4.15s-2.17-3.38-2.8-4.39c-.09-.1-.14-.15-.17-.15s-.05,0-.05.08a.72.72,0,0,0,0,.13l0,2.48a.38.38,0,0,1-.11.26.34.34,0,0,1-.27.12h-2a.41.41,0,0,1-.28-.11.34.34,0,0,1-.12-.27v-8a.38.38,0,0,1,.12-.29.41.41,0,0,1,.28-.11h2.06a.32.32,0,0,1,.25.12l5.09,8.47c.12.23.23.35.31.35s.11-.12.11-.35l0-8.19a.39.39,0,0,1,.38-.4h2.23a.41.41,0,0,1,.28.11.38.38,0,0,1,.12.29V33a.34.34,0,0,1-.12.27.4.4,0,0,1-.28.1H36.12Z"/><path class="cls-1" d="M43.42,33.12V21.78a.46.46,0,0,0-.14-.34.48.48,0,0,0-.36-.14h-1.2a.26.26,0,0,1-.19-.09.29.29,0,0,1-.08-.21V19.05a.32.32,0,0,1,.08-.21.29.29,0,0,1,.19-.08H50.9a.29.29,0,0,1,.19.08.32.32,0,0,1,.08.21V21a.29.29,0,0,1-.08.21.26.26,0,0,1-.19.09H47a.45.45,0,0,0-.35.15.44.44,0,0,0-.15.33V33.12a.24.24,0,0,1-.09.2.24.24,0,0,1-.18.07H43.7C43.51,33.39,43.42,33.3,43.42,33.12Z"/><path class="cls-1" d="M54.69,21.2a.36.36,0,0,1-.11-.28V19.11a.33.33,0,0,1,.11-.27.37.37,0,0,1,.26-.1H64.7a.41.41,0,0,1,.28.11.37.37,0,0,1,.12.26v1.81a.37.37,0,0,1-.12.27.35.35,0,0,1-.28.13H55A.35.35,0,0,1,54.69,21.2Zm0,12.12a.34.34,0,0,1-.11-.26v-9.7a.34.34,0,0,1,.11-.28A.37.37,0,0,1,55,23h1.79a.36.36,0,0,1,.27.1.38.38,0,0,1,.11.28v1.51c0,.26.18.4.54.4H63a.39.39,0,0,1,.26.09.31.31,0,0,1,.1.24v1.81a.3.3,0,0,1-.1.24.4.4,0,0,1-.26.1H57.6c-.32,0-.48.14-.48.44v2.29a.41.41,0,0,0,.4.39h7.22a.38.38,0,0,1,.38.38v1.81a.38.38,0,0,1-.11.26.34.34,0,0,1-.27.12H55A.35.35,0,0,1,54.69,33.32Z"/><path class="cls-1" d="M68.78,33.33a.33.33,0,0,1-.11-.27V25.73a.36.36,0,0,1,.11-.28.38.38,0,0,1,.28-.12h4.35a2,2,0,0,0,1.42-.57,1.84,1.84,0,0,0,.58-1.36A1.89,1.89,0,0,0,74.83,22a2,2,0,0,0-1.42-.56H71.65a.53.53,0,0,0-.39.15.5.5,0,0,0-.16.37v.53a.52.52,0,0,1-.14.36.49.49,0,0,1-.38.16H69.19a.5.5,0,0,1-.37-.16.49.49,0,0,1-.15-.36V19.11a.38.38,0,0,1,.39-.39h4.35a4.73,4.73,0,0,1,2.4.63,4.78,4.78,0,0,1,1.73,1.7,4.53,4.53,0,0,1,.64,2.35,4.59,4.59,0,0,1-.49,2.06,4.7,4.7,0,0,1-1.36,1.61.26.26,0,0,0-.12.21.62.62,0,0,0,0,.21l2.43,5.44a.54.54,0,0,1,.09.28c0,.15-.1.23-.3.23H76.73a1,1,0,0,1-.35,0,.37.37,0,0,1-.2-.21L74,28.27a.35.35,0,0,0-.17-.17,1.3,1.3,0,0,0-.42,0H71.63a.82.82,0,0,0-.39.07.32.32,0,0,0-.14.31v4.62a.37.37,0,0,1-.11.27.44.44,0,0,1-.29.11H69.06A.41.41,0,0,1,68.78,33.33Z"/></svg>